<svg width="44" height="44" viewBox="0 0 44 44" fill="none" xmlns="http://www.w3.org/2000/svg">
<path d="M36.7963 11.6417H27.5013V14.2267H36.833L36.7963 11.6417ZM34.8346 29.425C34.1295 29.8922 33.2968 30.1292 32.4513 30.1033C31.8916 30.1617 31.326 30.1039 30.7897 29.9335C30.2534 29.7632 29.758 29.4839 29.3346 29.1133C28.5518 28.2258 28.1443 27.0689 28.198 25.8867H40.3346C40.4221 24.6557 40.317 23.4186 40.023 22.22C39.7386 21.0797 39.2409 20.0035 38.5563 19.0483C37.8672 18.1218 36.9771 17.3633 35.953 16.83C34.8135 16.2681 33.5566 15.9854 32.2863 16.005C31.0915 15.9962 29.9071 16.2269 28.803 16.6833C27.7919 17.1096 26.8758 17.7328 26.108 18.5167C25.3424 19.3162 24.7495 20.2648 24.3663 21.3033C23.9551 22.4245 23.7501 23.6108 23.7613 24.805C23.7424 26.0161 23.9411 27.2208 24.348 28.3617C24.6935 29.3948 25.242 30.3485 25.9613 31.1667C26.7055 31.9699 27.6201 32.5964 28.638 33C29.773 33.4324 30.9802 33.644 32.1946 33.6233C33.8986 33.6764 35.5809 33.2304 37.0346 32.34C38.503 31.2966 39.5601 29.7725 40.023 28.0317H35.9713C35.7544 28.6076 35.3553 29.0968 34.8346 29.425ZM28.5463 21.8717C28.689 21.4146 28.9258 20.9924 29.2416 20.6325C29.5574 20.2725 29.945 19.9827 30.3796 19.7817C30.9552 19.5226 31.582 19.3972 32.213 19.415C32.6688 19.3761 33.1276 19.4362 33.558 19.5912C33.9883 19.7463 34.3801 19.9926 34.7063 20.3133C35.3292 21.0759 35.729 21.9959 35.8613 22.9717H28.253C28.2826 22.5991 28.3502 22.2305 28.4546 21.8717H28.5463ZM18.848 20.9917C19.7811 20.6031 20.5919 19.9697 21.1946 19.1583C21.7487 18.2967 22.024 17.2853 21.983 16.2617C22.0189 15.3282 21.8369 14.3992 21.4513 13.5483C21.1274 12.8112 20.6074 12.177 19.948 11.715C19.2488 11.2346 18.4549 10.9095 17.6196 10.7617C16.6311 10.5543 15.6229 10.456 14.613 10.4683H3.66797V33.5317H14.8513C15.8719 33.5324 16.8884 33.403 17.8763 33.1467C18.8127 32.9044 19.6998 32.5012 20.498 31.955C21.2712 31.4191 21.9007 30.7014 22.3313 29.865C22.8078 28.9296 23.0411 27.8893 23.0096 26.84C23.0444 25.5397 22.6796 24.26 21.9646 23.1733C21.1957 22.0805 20.0553 21.305 18.7563 20.9917H18.848ZM8.7463 14.41H13.4946C13.9309 14.4094 14.3663 14.4463 14.7963 14.52C15.1922 14.5787 15.5724 14.7158 15.9146 14.9233C16.2453 15.1103 16.5132 15.391 16.6846 15.73C16.897 16.1365 16.9982 16.5918 16.978 17.05C17.0121 17.4446 16.9518 17.8417 16.8019 18.2083C16.6521 18.5749 16.4171 18.9006 16.1163 19.1583C15.4602 19.6094 14.6751 19.8346 13.8796 19.8H8.7463V14.41ZM17.6196 28.05C17.4313 28.4236 17.1464 28.7401 16.7946 28.9667C16.4285 29.1944 16.0251 29.3557 15.603 29.4433C15.1337 29.5484 14.6537 29.5976 14.173 29.59H8.67297V23.265H14.173C15.1168 23.2237 16.0489 23.4872 16.8313 24.0167C17.1848 24.3339 17.4586 24.7299 17.6306 25.1726C17.8026 25.6153 17.8679 26.0923 17.8213 26.565C17.8709 27.0689 17.8018 27.5775 17.6196 28.05Z" fill="#F1F1F1"/>
</svg>
