<svg width="43" height="43" viewBox="0 0 43 43" fill="none" xmlns="http://www.w3.org/2000/svg">
<path d="M21.4987 3.58337C17.9551 3.58337 14.4911 4.63417 11.5447 6.60288C8.59836 8.57159 6.30193 11.3698 4.94586 14.6436C3.58979 17.9175 3.23498 21.5199 3.9263 24.9954C4.61762 28.4709 6.32402 31.6633 8.82971 34.169C11.3354 36.6747 14.5278 38.3811 18.0033 39.0724C21.4788 39.7638 25.0813 39.409 28.3551 38.0529C31.629 36.6968 34.4272 34.4004 36.3959 31.454C38.3646 28.5076 39.4154 25.0436 39.4154 21.5C39.4154 19.1472 38.9519 16.8174 38.0515 14.6436C37.1512 12.4699 35.8314 10.4948 34.1677 8.83104C32.504 7.16733 30.5289 5.8476 28.3551 4.9472C26.1814 4.0468 23.8516 3.58337 21.4987 3.58337ZM21.4987 7.16671C25.1801 7.16524 28.7187 8.59096 31.3708 11.1442C28.6332 12.7499 25.7322 14.0592 22.717 15.05C21.2165 12.4644 19.4961 10.0127 17.575 7.72212C18.8506 7.35483 20.1713 7.16788 21.4987 7.16671ZM14.135 9.22712C16.0121 11.3744 17.6967 13.6826 19.1695 16.125C15.6527 16.9983 12.0432 17.4435 8.41954 17.4509H7.77454C8.79078 14.0102 11.0603 11.0758 14.135 9.22712ZM10.7487 31.0138C8.41731 28.3957 7.14043 25.0056 7.16537 21.5C7.16537 21.3209 7.16537 21.1417 7.16537 20.9805H8.38371C12.6253 20.9425 16.8429 20.34 20.9254 19.1888C21.4987 20.2817 22.0362 21.4105 22.5558 22.575C19.7635 23.5594 17.1629 25.0203 14.8695 26.893L14.332 27.323C13.0548 28.47 11.8575 29.7032 10.7487 31.0138ZM21.4987 35.8334C18.6429 35.8397 15.8517 34.9842 13.49 33.3788C14.3622 32.3783 15.2957 31.4329 16.285 30.548L16.8583 30.0642C18.9781 28.2813 21.4073 26.9028 24.025 25.9971C25.1023 28.9104 25.9412 31.9063 26.5333 34.9555C24.9204 35.5443 23.2157 35.8416 21.4987 35.8334ZM29.7941 33.1638C29.2079 30.4522 28.4418 27.7827 27.5008 25.173H28.11C28.1806 25.1555 28.2544 25.1555 28.325 25.173H28.522H28.7012H29.5612C31.4467 25.1784 33.318 25.4993 35.0975 26.1225C34.1198 28.9719 32.2628 31.4374 29.7941 33.1638ZM29.5612 21.5C29.185 21.5 28.8087 21.5 28.4504 21.5C28.2184 21.4708 27.9836 21.4708 27.7516 21.5C27.2647 21.5299 26.78 21.5898 26.3004 21.6792H26.1212C25.6016 20.4788 25.0641 19.3142 24.4729 18.0959C27.6811 16.9941 30.7623 15.5526 33.6641 13.7959C35.1036 16.106 35.8556 18.7782 35.832 21.5C35.832 21.8046 35.832 22.1092 35.832 22.4138C33.8015 21.7871 31.6861 21.4789 29.5612 21.5Z" fill="#F1F1F1"/>
</svg>
