<svg width="41" height="31" viewBox="0 0 41 31" fill="none" xmlns="http://www.w3.org/2000/svg">
<g clip-path="url(#clip0_128_159)">
<path d="M0 3.64347V2.58333C0 1.89819 0.269977 1.24111 0.750539 0.756641C1.2311 0.272172 1.88288 0 2.5625 0L38.4375 0C39.1171 0 39.7689 0.272172 40.2495 0.756641C40.73 1.24111 41 1.89819 41 2.58333V3.64347L20.5 16.5601L0 3.64347ZM21.1791 19.179C20.9754 19.3071 20.7401 19.3751 20.5 19.3751C20.2599 19.3751 20.0246 19.3071 19.8209 19.179L0 6.68986V28.4167C0 29.1018 0.269977 29.7589 0.750539 30.2434C1.2311 30.7278 1.88288 31 2.5625 31H38.4375C39.1171 31 39.7689 30.7278 40.2495 30.2434C40.73 29.7589 41 29.1018 41 28.4167V6.68986L21.1791 19.179Z" fill="#F1F1F1"/>
</g>
<defs>
<clipPath id="clip0_128_159">
<rect width="41" height="31" fill="white"/>
</clipPath>
</defs>
</svg>
