<svg width="41" height="41" viewBox="0 0 41 41" fill="none" xmlns="http://www.w3.org/2000/svg">
<path d="M34.9699 3.41662H6.03078C5.70548 3.4121 5.38247 3.47171 5.08021 3.59204C4.77794 3.71237 4.50234 3.89106 4.26914 4.11791C4.03595 4.34476 3.84972 4.61533 3.7211 4.91416C3.59248 5.21299 3.52399 5.53423 3.51953 5.85954V35.1404C3.52399 35.4657 3.59248 35.7869 3.7211 36.0857C3.84972 36.3846 4.03595 36.6551 4.26914 36.882C4.50234 37.1088 4.77794 37.2875 5.08021 37.4079C5.38247 37.5282 5.70548 37.5878 6.03078 37.5833H34.9699C35.2953 37.5878 35.6183 37.5282 35.9205 37.4079C36.2228 37.2875 36.4984 37.1088 36.7316 36.882C36.9648 36.6551 37.151 36.3846 37.2796 36.0857C37.4082 35.7869 37.4767 35.4657 37.4812 35.1404V5.85954C37.4767 5.53423 37.4082 5.21299 37.2796 4.91416C37.151 4.61533 36.9648 4.34476 36.7316 4.11791C36.4984 3.89106 36.2228 3.71237 35.9205 3.59204C35.6183 3.47171 35.2953 3.4121 34.9699 3.41662ZM13.8208 32.0141H8.69578V16.6391H13.8208V32.0141ZM11.2583 14.4866C10.5515 14.4866 9.87363 14.2058 9.37384 13.7061C8.87406 13.2063 8.59328 12.5284 8.59328 11.8216C8.59328 11.1148 8.87406 10.437 9.37384 9.93718C9.87363 9.4374 10.5515 9.15662 11.2583 9.15662C11.6336 9.11406 12.0137 9.15125 12.3736 9.26575C12.7336 9.38026 13.0653 9.56951 13.347 9.8211C13.6287 10.0727 13.8541 10.3809 14.0085 10.7257C14.1628 11.0704 14.2426 11.4439 14.2426 11.8216C14.2426 12.1993 14.1628 12.5728 14.0085 12.9175C13.8541 13.2623 13.6287 13.5706 13.347 13.8221C13.0653 14.0737 12.7336 14.263 12.3736 14.3775C12.0137 14.492 11.6336 14.5292 11.2583 14.4866ZM32.3049 32.0141H27.1799V23.7629C27.1799 21.6958 26.4454 20.3462 24.5833 20.3462C24.007 20.3504 23.4459 20.5312 22.9755 20.8641C22.5051 21.1971 22.148 21.6662 21.9524 22.2083C21.8188 22.6098 21.7608 23.0327 21.7816 23.4554V31.997H16.6566C16.6566 31.997 16.6566 18.0229 16.6566 16.622H21.7816V18.7916C22.2472 17.9838 22.9243 17.3182 23.7401 16.8667C24.5559 16.4151 25.4794 16.1947 26.4112 16.2291C29.8279 16.2291 32.3049 18.4329 32.3049 23.165V32.0141Z" fill="#F1F1F1"/>
</svg>
