<svg width="40" height="40" viewBox="0 0 40 40" fill="none" xmlns="http://www.w3.org/2000/svg">
<rect width="40" height="40" rx="8" fill="#2281FF"/>
<path d="M26 11H14C11.8 11 10 12.8 10 15V25C10 27.2 11.8 29 14 29H26C28.2 29 30 27.2 30 25V15C30 12.8 28.2 11 26 11ZM28 25C28 26.1 27.1 27 26 27H14C12.9 27 12 26.1 12 25V18H28V25ZM28 16H12V15C12 13.9 12.9 13 14 13H26C27.1 13 28 13.9 28 15V16Z" fill="#FCFCFC"/>
<path d="M18.8996 15.4C19.3414 15.4 19.6996 15.0418 19.6996 14.6C19.6996 14.1582 19.3414 13.8 18.8996 13.8C18.4578 13.8 18.0996 14.1582 18.0996 14.6C18.0996 15.0418 18.4578 15.4 18.8996 15.4Z" fill="#FCFCFC"/>
<path d="M16.3 15.4C16.7418 15.4 17.1 15.0418 17.1 14.6C17.1 14.1582 16.7418 13.8 16.3 13.8C15.8582 13.8 15.5 14.1582 15.5 14.6C15.5 15.0418 15.8582 15.4 16.3 15.4Z" fill="#FCFCFC"/>
<path d="M13.8 15.4C14.2418 15.4 14.6 15.0418 14.6 14.6C14.6 14.1582 14.2418 13.8 13.8 13.8C13.3582 13.8 13 14.1582 13 14.6C13 15.0418 13.3582 15.4 13.8 15.4Z" fill="#FCFCFC"/>
</svg>
