<svg width="41" height="41" viewBox="0 0 41 41" fill="none" xmlns="http://www.w3.org/2000/svg">
<path d="M39.2918 16.588C39.3762 14.1427 38.8415 11.7158 37.7372 9.53253C36.9879 8.63668 35.9481 8.03212 34.7988 7.8242C30.0454 7.39289 25.2724 7.21611 20.5001 7.29462C15.7452 7.21255 10.9893 7.38362 6.25259 7.80712C5.31611 7.97747 4.44947 8.41672 3.75842 9.07128C2.22092 10.4892 2.05009 12.915 1.87925 14.965C1.63139 18.6509 1.63139 22.3492 1.87925 26.035C1.92868 27.1889 2.10047 28.3342 2.39175 29.4517C2.59774 30.3145 3.01448 31.1128 3.60467 31.775C4.30042 32.4643 5.18724 32.9285 6.15009 33.1075C9.83311 33.5622 13.5441 33.7506 17.2543 33.6713C23.2334 33.7567 28.478 33.6713 34.6793 33.1929C35.6657 33.0249 36.5775 32.5601 37.293 31.8604C37.7713 31.382 38.1285 30.7963 38.3351 30.1521C38.946 28.2774 39.2461 26.3154 39.2234 24.3438C39.2918 23.3871 39.2918 17.613 39.2918 16.588ZM16.6393 25.3688V14.7942L26.7526 20.1071C23.9168 21.6788 20.1755 23.4554 16.6393 25.3688Z" fill="#F1F1F1"/>
</svg>
